Coordinates
version=1
nRows=26
nColumns=24
inDegrees=yes

Units are S.I. units (second, meters, Newtons, ...)
Angles are in degrees.

endheader
time	pelvis_tilt	pelvis_list	pelvis_rotation	pelvis_tx	pelvis_ty	pelvis_tz	hip_flexion_r	hip_adduction_r	hip_rotation_r	knee_angle_r	ankle_angle_r	subtalar_angle_r	mtp_angle_r	hip_flexion_l	hip_adduction_l	hip_rotation_l	knee_angle_l	ankle_angle_l	subtalar_angle_l	mtp_angle_l	lumbar_extension	lumbar_bending	lumbar_rotation
      3.82000000	     -8.58827560	      7.52567174	      2.51044063	     -0.63588299	     -0.01905537	      0.70365664	     41.38497612	    -10.27184966	     -1.42259554	    -63.64848960	    -15.95718333	    -14.38558476	     25.76434034	      1.16879408	     12.63235427	     17.86946021	    -14.24192141	     16.97440695	    -10.10057215	    -31.72875657	      7.24281664	     -8.83316183	     -9.68726136
      3.82500000	     -8.55693520	      7.37622511	      2.61042993	     -0.62887838	     -0.01939246	      0.70361104	     41.67809710	     -9.98864283	     -1.29061979	    -62.32364990	    -15.58849332	    -14.15427548	     25.27404019	      0.55912655	     12.38868393	     17.90279675	    -14.00426074	     17.05000271	     -9.82509443	    -31.54180150	      7.13338396	     -8.62723694	     -9.89270219
      3.83000000	     -8.50437116	      7.22811214	      2.70658613	     -0.62183519	     -0.01973287	      0.70357984	     41.89169558	     -9.71605327	     -1.17636215	    -60.90190207	    -15.16983737	    -13.90414116	     24.82472373	     -0.06515830	     12.13545281	     17.88789084	    -13.77655094	     17.10567415	     -9.48211563	    -31.26707809	      7.00351947	     -8.41978988	    -10.06293110
      3.83500000	     -8.46678132	      7.07520545	      2.79450035	     -0.61480208	     -0.02010823	      0.70357386	     42.07461739	     -9.43260354	     -1.03776649	    -59.38800411	    -14.74330591	    -13.58592877	     24.43171877	     -0.65566549	     11.87034094	     17.83842868	    -13.57137894	     17.15147229	     -9.08630092	    -30.91064803	      6.89052915	     -8.20561672	    -10.23032584
      3.84000000	     -8.44024136	      6.91453805	      2.87433060	     -0.60776032	     -0.02050529	      0.70359264	     42.21753835	     -9.14029693	     -0.88788020	    -57.77870122	    -14.30867324	    -13.22727812	     24.06500921	     -1.21970641	     11.58951320	     17.74415239	    -13.38366885	     17.18998659	     -8.63520268	    -30.48532211	      6.78990135	     -7.98257950	    -10.38743473
      3.84500000	     -8.41823885	      6.74704434	      2.94319880	     -0.60071520	     -0.02091787	      0.70361039	     42.31381188	     -8.84388827	     -0.73683876	    -56.07808277	    -13.85520580	    -12.85332158	     23.65996500	     -1.75878685	     11.29670936	     17.58691363	    -13.22180894	     17.21452144	     -8.10797149	    -29.95530220	      6.69257435	     -7.74400051	    -10.53150537
      3.85000000	     -8.41281385	      6.56992344	      3.01073142	     -0.59365819	     -0.02134947	      0.70365599	     42.37203777	     -8.54378322	     -0.58681505	    -54.28535820	    -13.39340553	    -12.48199982	     23.19633961	     -2.26437714	     10.98565701	     17.36384291	    -13.07750691	     17.22357011	     -7.50844109	    -29.29968812	      6.61532429	     -7.49637532	    -10.66443080
      3.85500000	     -8.54786385	      6.40433787	      3.08225848	     -0.58654937	     -0.02197520	      0.70377153	     42.55398969	     -8.25137177	     -0.42772935	    -52.47920657	    -12.78062375	    -12.01802852	     21.88341992	     -2.59172986	     10.67475981	     16.90707177	    -12.90670482	     16.29344124	     -6.94743155	    -25.60320261	      6.70633831	     -7.27587658	    -10.79111320
      3.86000000	     -8.53058498	      6.22153233	      3.12697656	     -0.57949986	     -0.02237843	      0.70377362	     42.48882801	     -7.96939123	     -0.29088829	    -50.47473283	    -12.47354746	    -11.81942804	     21.91804869	     -3.08306674	     10.35787726	     16.62943400	    -12.80575764	     16.41096974	     -6.23688771	    -25.32176169	      6.61079216	     -7.00694299	    -10.90014491
      3.86500000	     -8.56686086	      6.00903094	      3.10258345	     -0.57233968	     -0.02283881	      0.70393654	     42.44410973	     -7.59790301	     -0.12348773	    -48.43106368	    -12.14028112	    -11.74472283	     21.10612483	     -3.49833777	      9.99555939	     16.09196550	    -12.69645489	     16.27692746	     -5.42311974	    -24.12611318	      6.60304934	     -6.69637999	    -10.92781311
      3.87000000	     -8.76035077	      5.89386202	      3.22669478	     -0.56521240	     -0.02350096	      0.70368543	     42.52234989	     -7.46831813	      0.02560826	    -46.34410176	    -11.71947866	    -11.39573410	     21.02865089	     -3.77130650	      9.78980436	     16.06811815	    -12.61692945	     16.24752579	     -4.95319368	    -23.92776747	      6.74528208	     -6.49235951	    -11.09945702
      3.87500000	     -8.72315473	      5.61794703	      3.33699329	     -0.55801919	     -0.02387839	      0.70383274	     42.26901400	     -7.15660201	      0.00505309	    -44.20368225	    -11.22227136	    -11.27986229	     19.69122612	     -4.20406961	      9.29283524	     15.13291210	    -12.48726510	     14.82960878	     -3.82453483	    -17.94499329	      6.64115923	     -6.15270965	    -11.27572561
      3.88000000	     -8.82080395	      5.48759837	      3.41645440	     -0.55078456	     -0.02446252	      0.70374703	     42.16002012	     -6.99210341	      0.13304527	    -42.03599810	    -10.83057310	    -11.12086988	     19.32775794	     -4.52030304	      9.03430357	     14.69244361	    -12.49346752	     14.93432090	     -2.85365655	    -17.62264548	      6.69263506	     -5.93371037	    -11.39418611
      3.88500000	     -8.87761756	      5.29151451	      3.52654581	     -0.54344003	     -0.02496754	      0.70364287	     41.94497585	     -6.79189506	      0.17406928	    -39.83809901	    -10.42452356	    -11.06007728	     18.55916475	     -4.87693756	      8.69180947	     14.24383954	    -12.49609896	     14.90564738	     -1.86569430	    -16.87813677	      6.71151439	     -5.64479339	    -11.55427573
      3.89000000	     -9.02821611	      5.08518638	      3.63006188	     -0.53592337	     -0.02562809	      0.70365355	     41.80942706	     -6.56445627	      0.24295711	    -37.68657377	     -9.89753413	    -10.95197158	     17.31817045	     -5.14229935	      8.30385571	     13.52061264	    -12.32909262	     13.41287419	     -1.06732981	    -11.44623107	      6.86167459	     -5.35779267	    -11.65155308
      3.89500000	     -9.09100547	      4.94041888	      3.78293933	     -0.52843924	     -0.02620869	      0.70342116	     41.55444851	     -6.46485016	      0.29111291	    -35.53130322	     -9.47083789	    -10.79718058	     16.91109028	     -5.47859765	      8.02373357	     13.12483630	    -12.38612603	     13.43475445	     -0.07555435	    -11.07868751	      6.89760210	     -5.11741212	    -11.83251097
      3.90000000	     -9.13905506	      4.72571264	      3.96375355	     -0.52080010	     -0.02676263	      0.70321067	     41.24522090	     -6.30744182	      0.30196820	    -33.42259128	     -9.00829656	    -10.66288501	     16.06621450	     -5.81889017	      7.65042787	     12.69195273	    -12.45072131	     13.32954583	      0.97036810	    -10.20533279	      6.93883986	     -4.80917112	    -12.04086845
      3.90500000	     -9.29415541	      4.54766975	      4.10737490	     -0.51296417	     -0.02753446	      0.70312912	     41.07600587	     -6.14075537	      0.43573223	    -31.49971644	     -8.17433561	    -10.16274231	     14.20772636	     -6.08005343	      7.29979234	     12.13906296	    -12.33226963	     12.06563297	      1.70864741	     -5.87272001	      7.13177823	     -4.54757563	    -12.14136879
      3.91000000	     -9.31930499	      4.32128382	      4.35683652	     -0.50516377	     -0.02810630	      0.70278511	     40.71380452	     -6.03111460	      0.42115966	    -29.52422270	     -7.89240881	    -10.04237912	     14.07571543	     -6.41912368	      6.91034410	     11.80890882	    -12.46452949	     11.99657411	      2.76833472	     -5.26138302	      7.16321770	     -4.22397416	    -12.40538929
      3.91500000	     -9.41136391	      4.06587735	      4.55650046	     -0.49710161	     -0.02883394	      0.70264247	     40.44389759	     -5.83312485	      0.51779701	    -27.77289202	     -7.19298002	     -9.54143747	     12.60391109	     -6.71300204	      6.45950670	     11.29759313	    -12.42404994	     10.90613376	      3.64191631	     -1.43100470	      7.31726603	     -3.87943432	    -12.56972872
      3.92000000	     -9.52255512	      3.82329127	      4.85800681	     -0.48899809	     -0.02956367	      0.70212486	     40.18551086	     -5.76917440	      0.45163310	    -26.09096516	     -6.85008440	     -9.07453982	     12.59743497	     -6.96354860	      6.07237908	     11.21123873	    -12.58375632	     10.78061693	      4.47736492	     -1.11266493	      7.49064441	     -3.53476799	    -12.83302259
      3.92500000	     -9.50610690	      3.52391025	      5.12383162	     -0.48082945	     -0.03021760	      0.70199785	     39.79976817	     -5.54808191	      0.61401952	    -24.62402557	     -6.28026045	     -8.58649462	     11.28031248	     -7.31432160	      5.54035245	     10.71332187	    -12.62985891	      9.67514533	      5.49461828	      2.83773247	      7.52845354	     -3.15177351	    -13.08068867
      3.93000000	     -9.44535606	      3.18982475	      5.38983663	     -0.47251233	     -0.03084346	      0.70166409	     39.37008626	     -5.33204079	      0.66777824	    -23.26609741	     -6.06052138	     -8.18930650	     11.18864241	     -7.70800681	      5.00473154	     10.45469205	    -12.79759944	      9.24541551	      6.45913664	      4.29952193	      7.54272404	     -2.69662190	    -13.31402461
      3.93500000	     -9.48188408	      2.90420982	      5.75224014	     -0.46411090	     -0.03159747	      0.70125934	     39.07327652	     -5.22936903	      0.70807951	    -22.16713729	     -5.67977048	     -7.49605449	     10.80870344	     -7.97992029	      4.51322880	     10.31314083	    -12.95310433	      8.42282173	      7.31391407	      6.81800983	      7.67314394	     -2.32691882	    -13.59652437
      3.94000000	     -9.61935368	      2.63395637	      6.15794452	     -0.45564076	     -0.03247065	      0.70062457	     38.92033742	     -5.20036096	      0.66184021	    -21.28085331	     -5.51000207	     -6.80565905	     10.94364137	     -8.10358189	      4.09469718	     10.42827818	    -13.28653416	      8.13893038	      8.01122732	      7.16668066	      7.92597792	     -1.96551240	    -13.95735415
      3.94500000	     -9.49347450	      2.26141131	      6.45754533	     -0.44704809	     -0.03311575	      0.70033907	     38.48393336	     -4.94392365	      0.78490399	    -20.53944071	     -5.54912998	     -6.45946905	     11.13246407	     -8.49311525	      3.48166877	     10.12977987	    -13.47833536	      7.08027645	      8.86888525	     10.39981554	      7.90656699	     -1.46914349	    -14.18660407
